# xmcd CD database file
#
# Track frame offsets:
#	150
#	23783
#	30656
#	63377
#	82223
#	114269
#	125678
#	138330
#	171074
#	189171
#	217589
#	253110
#	268375
#	283561
#	288300
#
# Disc length: 4122 seconds
#
# Revision: 2
# Processed by: cddbd v1.5.2PL0 Copyright (c) Steve Scherf et al.
# Submitted via: CDex 1.51
#
DISCID=d910180f
DTITLE=Liszt - La Légende de Sainte Elizabeth (János Ferencsik, Slovak Philharmonic Orchestra)  [CD 2-2]
DYEAR=2007
DGENRE=Classique
TTITLE0=IV. Margravine Sophie  a) Dialogue de la Margravine Sophie et du Sénéchal
TTITLE1=b) Complainte d'Elisabeth
TTITLE2=c) Elisabeth est chassée de Wartbourg
TTITLE3=d) L'orage
TTITLE4=V. Elisabeth  a) Prière
TTITLE5=b) Rêve du pays natal et souvenir
TTITLE6=Interludium. Sempre Andante moderato
TTITLE7=c) Choeur des pauvres, chant sur les oeuvres de miséricorde
TTITLE8=d) Mort d'Elisabeth
TTITLE9=e) Choeur des anges
TTITLE10=VI. Enterrement solennel d'Elisabeth  a) Interlude de l'orchestre
TTITLE11=b) L'empereur Frédéric II, Hohenstaufen
TTITLE12=c) Choeur funèbre des pauvres et du peuple
TTITLE13=d) Défilé des Croisés
TTITLE14=e) Choeurs d'Église. Évêques hongrois et germaniques 
EXTD=YEAR: 2007
EXTT0=
EXTT1=
EXTT2=
EXTT3=
EXTT4=
EXTT5=
EXTT6=
EXTT7=
EXTT8=
EXTT9=
EXTT10=
EXTT11=
EXTT12=
EXTT13=
EXTT14=
PLAYORDER=
